<mxfile host="app.diagrams.net" modified="2023-09-14T05:26:44.401Z" agent="Mozilla/5.0 (Macintosh; Intel Mac OS X 10_15_7) AppleWebKit/605.1.15 (KHTML, like Gecko) Version/15.6.1 Safari/605.1.15" etag="ggE_ryMfDwiHWfj18ZjT" version="21.7.5" type="github">
  <diagram id="C5RBs43oDa-KdzZeNtuy" name="Page-1">
    <mxGraphModel dx="1108" dy="886" grid="1" gridSize="10" guides="1" tooltips="1" connect="1" arrows="1" fold="1" page="1" pageScale="1" pageWidth="827" pageHeight="1169" math="0" shadow="0">
      <root>
        <mxCell id="WIyWlLk6GJQsqaUBKTNV-0" />
        <mxCell id="WIyWlLk6GJQsqaUBKTNV-1" parent="WIyWlLk6GJQsqaUBKTNV-0" />
        <mxCell id="J-1Mxv4PFVDow-6Bid6B-0" value="" style="rounded=1;whiteSpace=wrap;html=1;" vertex="1" parent="WIyWlLk6GJQsqaUBKTNV-1">
          <mxGeometry x="260" y="200" width="180" height="170" as="geometry" />
        </mxCell>
        <mxCell id="J-1Mxv4PFVDow-6Bid6B-1" value="" style="endArrow=classic;html=1;rounded=0;entryX=-0.028;entryY=0.818;entryDx=0;entryDy=0;entryPerimeter=0;" edge="1" parent="WIyWlLk6GJQsqaUBKTNV-1" target="J-1Mxv4PFVDow-6Bid6B-0">
          <mxGeometry width="50" height="50" relative="1" as="geometry">
            <mxPoint x="150" y="240" as="sourcePoint" />
            <mxPoint x="230" y="220" as="targetPoint" />
            <Array as="points" />
          </mxGeometry>
        </mxCell>
        <mxCell id="J-1Mxv4PFVDow-6Bid6B-2" value="" style="endArrow=none;html=1;rounded=0;" edge="1" parent="WIyWlLk6GJQsqaUBKTNV-1">
          <mxGeometry width="50" height="50" relative="1" as="geometry">
            <mxPoint x="255" y="250" as="sourcePoint" />
            <mxPoint x="445" y="250" as="targetPoint" />
          </mxGeometry>
        </mxCell>
        <mxCell id="J-1Mxv4PFVDow-6Bid6B-4" value="&amp;nbsp;ParkSeungMin" style="text;html=1;strokeColor=none;fillColor=none;align=center;verticalAlign=middle;whiteSpace=wrap;rounded=0;" vertex="1" parent="WIyWlLk6GJQsqaUBKTNV-1">
          <mxGeometry x="320" y="300" width="60" height="30" as="geometry" />
        </mxCell>
        <mxCell id="J-1Mxv4PFVDow-6Bid6B-5" value="String" style="text;html=1;strokeColor=none;fillColor=none;align=center;verticalAlign=middle;whiteSpace=wrap;rounded=0;" vertex="1" parent="WIyWlLk6GJQsqaUBKTNV-1">
          <mxGeometry x="320" y="210" width="60" height="30" as="geometry" />
        </mxCell>
        <mxCell id="J-1Mxv4PFVDow-6Bid6B-7" value="name" style="text;strokeColor=none;align=center;fillColor=none;html=1;verticalAlign=middle;whiteSpace=wrap;rounded=0;" vertex="1" parent="WIyWlLk6GJQsqaUBKTNV-1">
          <mxGeometry x="40" y="210" width="60" height="30" as="geometry" />
        </mxCell>
        <mxCell id="J-1Mxv4PFVDow-6Bid6B-8" value="" style="rounded=0;whiteSpace=wrap;html=1;" vertex="1" parent="WIyWlLk6GJQsqaUBKTNV-1">
          <mxGeometry x="90" y="210" width="120" height="30" as="geometry" />
        </mxCell>
        <mxCell id="J-1Mxv4PFVDow-6Bid6B-9" value="" style="rounded=1;whiteSpace=wrap;html=1;" vertex="1" parent="WIyWlLk6GJQsqaUBKTNV-1">
          <mxGeometry x="290" y="470" width="180" height="170" as="geometry" />
        </mxCell>
        <mxCell id="J-1Mxv4PFVDow-6Bid6B-10" value="" style="endArrow=classic;html=1;rounded=0;entryX=-0.028;entryY=0.818;entryDx=0;entryDy=0;entryPerimeter=0;" edge="1" parent="WIyWlLk6GJQsqaUBKTNV-1" target="J-1Mxv4PFVDow-6Bid6B-9">
          <mxGeometry width="50" height="50" relative="1" as="geometry">
            <mxPoint x="180" y="510" as="sourcePoint" />
            <mxPoint x="260" y="490" as="targetPoint" />
            <Array as="points" />
          </mxGeometry>
        </mxCell>
        <mxCell id="J-1Mxv4PFVDow-6Bid6B-11" value="" style="endArrow=none;html=1;rounded=0;" edge="1" parent="WIyWlLk6GJQsqaUBKTNV-1">
          <mxGeometry width="50" height="50" relative="1" as="geometry">
            <mxPoint x="285" y="520" as="sourcePoint" />
            <mxPoint x="475" y="520" as="targetPoint" />
          </mxGeometry>
        </mxCell>
        <mxCell id="J-1Mxv4PFVDow-6Bid6B-12" value="n" style="text;html=1;strokeColor=none;fillColor=none;align=center;verticalAlign=middle;whiteSpace=wrap;rounded=0;" vertex="1" parent="WIyWlLk6GJQsqaUBKTNV-1">
          <mxGeometry x="350" y="570" width="60" height="30" as="geometry" />
        </mxCell>
        <mxCell id="J-1Mxv4PFVDow-6Bid6B-13" value="String" style="text;html=1;strokeColor=none;fillColor=none;align=center;verticalAlign=middle;whiteSpace=wrap;rounded=0;" vertex="1" parent="WIyWlLk6GJQsqaUBKTNV-1">
          <mxGeometry x="350" y="480" width="60" height="30" as="geometry" />
        </mxCell>
        <mxCell id="J-1Mxv4PFVDow-6Bid6B-14" value="str" style="text;strokeColor=none;align=center;fillColor=none;html=1;verticalAlign=middle;whiteSpace=wrap;rounded=0;" vertex="1" parent="WIyWlLk6GJQsqaUBKTNV-1">
          <mxGeometry x="70" y="480" width="60" height="30" as="geometry" />
        </mxCell>
        <mxCell id="J-1Mxv4PFVDow-6Bid6B-15" value="" style="rounded=0;whiteSpace=wrap;html=1;" vertex="1" parent="WIyWlLk6GJQsqaUBKTNV-1">
          <mxGeometry x="120" y="480" width="120" height="30" as="geometry" />
        </mxCell>
        <mxCell id="J-1Mxv4PFVDow-6Bid6B-16" value="" style="rounded=1;whiteSpace=wrap;html=1;" vertex="1" parent="WIyWlLk6GJQsqaUBKTNV-1">
          <mxGeometry x="700" y="460" width="180" height="170" as="geometry" />
        </mxCell>
        <mxCell id="J-1Mxv4PFVDow-6Bid6B-17" value="" style="endArrow=classic;html=1;rounded=0;entryX=-0.028;entryY=0.818;entryDx=0;entryDy=0;entryPerimeter=0;" edge="1" parent="WIyWlLk6GJQsqaUBKTNV-1" target="J-1Mxv4PFVDow-6Bid6B-16">
          <mxGeometry width="50" height="50" relative="1" as="geometry">
            <mxPoint x="590" y="500" as="sourcePoint" />
            <mxPoint x="670" y="480" as="targetPoint" />
            <Array as="points" />
          </mxGeometry>
        </mxCell>
        <mxCell id="J-1Mxv4PFVDow-6Bid6B-18" value="" style="endArrow=none;html=1;rounded=0;" edge="1" parent="WIyWlLk6GJQsqaUBKTNV-1">
          <mxGeometry width="50" height="50" relative="1" as="geometry">
            <mxPoint x="695" y="510" as="sourcePoint" />
            <mxPoint x="885" y="510" as="targetPoint" />
          </mxGeometry>
        </mxCell>
        <mxCell id="J-1Mxv4PFVDow-6Bid6B-19" value="arkSeungMi" style="text;html=1;strokeColor=none;fillColor=none;align=center;verticalAlign=middle;whiteSpace=wrap;rounded=0;" vertex="1" parent="WIyWlLk6GJQsqaUBKTNV-1">
          <mxGeometry x="760" y="560" width="60" height="30" as="geometry" />
        </mxCell>
        <mxCell id="J-1Mxv4PFVDow-6Bid6B-20" value="String" style="text;html=1;strokeColor=none;fillColor=none;align=center;verticalAlign=middle;whiteSpace=wrap;rounded=0;" vertex="1" parent="WIyWlLk6GJQsqaUBKTNV-1">
          <mxGeometry x="760" y="470" width="60" height="30" as="geometry" />
        </mxCell>
        <mxCell id="J-1Mxv4PFVDow-6Bid6B-21" value="str" style="text;strokeColor=none;align=center;fillColor=none;html=1;verticalAlign=middle;whiteSpace=wrap;rounded=0;" vertex="1" parent="WIyWlLk6GJQsqaUBKTNV-1">
          <mxGeometry x="500" y="440" width="60" height="30" as="geometry" />
        </mxCell>
        <mxCell id="J-1Mxv4PFVDow-6Bid6B-22" value="" style="rounded=0;whiteSpace=wrap;html=1;" vertex="1" parent="WIyWlLk6GJQsqaUBKTNV-1">
          <mxGeometry x="530" y="470" width="120" height="30" as="geometry" />
        </mxCell>
        <mxCell id="J-1Mxv4PFVDow-6Bid6B-25" value="str.length() -1" style="text;html=1;strokeColor=none;fillColor=none;align=center;verticalAlign=middle;whiteSpace=wrap;rounded=0;" vertex="1" parent="WIyWlLk6GJQsqaUBKTNV-1">
          <mxGeometry x="130" y="480" width="110" height="30" as="geometry" />
        </mxCell>
        <mxCell id="J-1Mxv4PFVDow-6Bid6B-29" value="str.substring. &amp;nbsp; &amp;nbsp; &amp;nbsp; &amp;nbsp; (1, str.length() -1" style="text;html=1;strokeColor=none;fillColor=none;align=center;verticalAlign=middle;whiteSpace=wrap;rounded=0;" vertex="1" parent="WIyWlLk6GJQsqaUBKTNV-1">
          <mxGeometry x="535" y="470" width="110" height="30" as="geometry" />
        </mxCell>
        <mxCell id="J-1Mxv4PFVDow-6Bid6B-30" value="" style="rounded=1;whiteSpace=wrap;html=1;" vertex="1" parent="WIyWlLk6GJQsqaUBKTNV-1">
          <mxGeometry x="530" y="690" width="180" height="170" as="geometry" />
        </mxCell>
        <mxCell id="J-1Mxv4PFVDow-6Bid6B-31" value="" style="endArrow=classic;html=1;rounded=0;entryX=-0.028;entryY=0.818;entryDx=0;entryDy=0;entryPerimeter=0;" edge="1" parent="WIyWlLk6GJQsqaUBKTNV-1" target="J-1Mxv4PFVDow-6Bid6B-30">
          <mxGeometry width="50" height="50" relative="1" as="geometry">
            <mxPoint x="420" y="730" as="sourcePoint" />
            <mxPoint x="500" y="710" as="targetPoint" />
            <Array as="points" />
          </mxGeometry>
        </mxCell>
        <mxCell id="J-1Mxv4PFVDow-6Bid6B-32" value="" style="endArrow=none;html=1;rounded=0;" edge="1" parent="WIyWlLk6GJQsqaUBKTNV-1">
          <mxGeometry width="50" height="50" relative="1" as="geometry">
            <mxPoint x="525" y="740" as="sourcePoint" />
            <mxPoint x="715" y="740" as="targetPoint" />
          </mxGeometry>
        </mxCell>
        <mxCell id="J-1Mxv4PFVDow-6Bid6B-33" value="P" style="text;html=1;strokeColor=none;fillColor=none;align=center;verticalAlign=middle;whiteSpace=wrap;rounded=0;" vertex="1" parent="WIyWlLk6GJQsqaUBKTNV-1">
          <mxGeometry x="590" y="790" width="60" height="30" as="geometry" />
        </mxCell>
        <mxCell id="J-1Mxv4PFVDow-6Bid6B-34" value="String" style="text;html=1;strokeColor=none;fillColor=none;align=center;verticalAlign=middle;whiteSpace=wrap;rounded=0;" vertex="1" parent="WIyWlLk6GJQsqaUBKTNV-1">
          <mxGeometry x="590" y="700" width="60" height="30" as="geometry" />
        </mxCell>
        <mxCell id="J-1Mxv4PFVDow-6Bid6B-35" value="" style="rounded=0;whiteSpace=wrap;html=1;" vertex="1" parent="WIyWlLk6GJQsqaUBKTNV-1">
          <mxGeometry x="360" y="700" width="120" height="30" as="geometry" />
        </mxCell>
        <mxCell id="J-1Mxv4PFVDow-6Bid6B-36" value="str.charAt(0)" style="text;html=1;strokeColor=none;fillColor=none;align=center;verticalAlign=middle;whiteSpace=wrap;rounded=0;" vertex="1" parent="WIyWlLk6GJQsqaUBKTNV-1">
          <mxGeometry x="370" y="700" width="110" height="30" as="geometry" />
        </mxCell>
        <mxCell id="J-1Mxv4PFVDow-6Bid6B-38" value="" style="rounded=1;whiteSpace=wrap;html=1;" vertex="1" parent="WIyWlLk6GJQsqaUBKTNV-1">
          <mxGeometry x="420" y="920" width="180" height="170" as="geometry" />
        </mxCell>
        <mxCell id="J-1Mxv4PFVDow-6Bid6B-39" value="" style="endArrow=classic;html=1;rounded=0;entryX=-0.028;entryY=0.818;entryDx=0;entryDy=0;entryPerimeter=0;" edge="1" parent="WIyWlLk6GJQsqaUBKTNV-1" target="J-1Mxv4PFVDow-6Bid6B-38">
          <mxGeometry width="50" height="50" relative="1" as="geometry">
            <mxPoint x="310" y="960" as="sourcePoint" />
            <mxPoint x="390" y="940" as="targetPoint" />
            <Array as="points" />
          </mxGeometry>
        </mxCell>
        <mxCell id="J-1Mxv4PFVDow-6Bid6B-40" value="" style="endArrow=none;html=1;rounded=0;" edge="1" parent="WIyWlLk6GJQsqaUBKTNV-1">
          <mxGeometry width="50" height="50" relative="1" as="geometry">
            <mxPoint x="415" y="970" as="sourcePoint" />
            <mxPoint x="605" y="970" as="targetPoint" />
          </mxGeometry>
        </mxCell>
        <mxCell id="J-1Mxv4PFVDow-6Bid6B-41" value="narkSeungMiP" style="text;html=1;strokeColor=none;fillColor=none;align=center;verticalAlign=middle;whiteSpace=wrap;rounded=0;" vertex="1" parent="WIyWlLk6GJQsqaUBKTNV-1">
          <mxGeometry x="480" y="1020" width="60" height="30" as="geometry" />
        </mxCell>
        <mxCell id="J-1Mxv4PFVDow-6Bid6B-42" value="String" style="text;html=1;strokeColor=none;fillColor=none;align=center;verticalAlign=middle;whiteSpace=wrap;rounded=0;" vertex="1" parent="WIyWlLk6GJQsqaUBKTNV-1">
          <mxGeometry x="480" y="930" width="60" height="30" as="geometry" />
        </mxCell>
        <mxCell id="J-1Mxv4PFVDow-6Bid6B-43" value="change" style="text;strokeColor=none;align=center;fillColor=none;html=1;verticalAlign=middle;whiteSpace=wrap;rounded=0;" vertex="1" parent="WIyWlLk6GJQsqaUBKTNV-1">
          <mxGeometry x="190" y="930" width="60" height="30" as="geometry" />
        </mxCell>
        <mxCell id="J-1Mxv4PFVDow-6Bid6B-44" value="" style="rounded=0;whiteSpace=wrap;html=1;" vertex="1" parent="WIyWlLk6GJQsqaUBKTNV-1">
          <mxGeometry x="250" y="930" width="120" height="30" as="geometry" />
        </mxCell>
        <mxCell id="J-1Mxv4PFVDow-6Bid6B-45" value="&lt;div style=&quot;text-align: start; background-color: rgb(30, 31, 34); color: rgb(188, 190, 196);&quot;&gt;&lt;pre style=&quot;font-family: &amp;quot;JetBrains Mono&amp;quot;, monospace; font-size: 9.8pt;&quot;&gt;str.charAt(str.length()-1) + str.substring(&lt;span style=&quot;color: rgb(42, 172, 184);&quot;&gt;1&lt;/span&gt;, str.length()-&lt;span style=&quot;color: rgb(42, 172, 184);&quot;&gt;1&lt;/span&gt;) + str.charAt(&lt;span style=&quot;color: rgb(42, 172, 184);&quot;&gt;0&lt;/span&gt;);&lt;/pre&gt;&lt;/div&gt;" style="text;html=1;strokeColor=none;fillColor=none;align=center;verticalAlign=middle;whiteSpace=wrap;rounded=0;" vertex="1" parent="WIyWlLk6GJQsqaUBKTNV-1">
          <mxGeometry x="260" y="900" width="110" height="30" as="geometry" />
        </mxCell>
      </root>
    </mxGraphModel>
  </diagram>
</mxfile>
